<svg xmlns="http://www.w3.org/2000/svg" viewBox="0 0 303.09 41.5"><g data-name="Слой 2"><path d="M0 18.77V.33h3.85l14.9 14.5V.33h3.59v18.44H18.5L3.61 4.26v14.51zm28.78 0V.33h20.5V2.5H32.53v5.64h15.69v2.17H32.53v6.28h17.41v2.18zm31.39 0L52.62.33h3.84l4.32 12.08c.46 1.25.86 2.5 1.2 3.78l1.28-3.41L68.65.33h4.56l4 9.33a37.55 37.55 0 012.21 6.53c.37-1.2.83-2.54 1.4-4L85.32.33h3.78l-7.8 18.44h-3.6l-6-14-.89-2.17c-.27.81-.55 1.53-.83 2.17l-5.98 14zm32.12 0V.33H96v16.26h14v2.18zm22.97 0V.33H119v18.44zm10.57 0V.33H145V2.5h-15.42v5.71h13.31v2.18h-13.31v8.38zm24.02 0V.33h20.5V2.5H153.6v5.64h15.69v2.17H153.6v6.28H171v2.18zm26.94 0v-2.58h4v2.58zm10.31 0V.33h5.64l6.73 13.05 1.34 2.73c.34-.68.84-1.66 1.52-2.95l6.8-12.83h5.05v18.44h-3.61V3.34l-8.27 15.43h-3.37l-8.22-15.69v15.69zm32.06-8.98a8.14 8.14 0 013.89-7.26A17.4 17.4 0 01232.74 0a20 20 0 016.85 1.13 11.26 11.26 0 014.89 3.29 7.77 7.77 0 011.81 5.14 8 8 0 01-3.5 6.68q-3.84 2.84-10.07 2.84t-10.1-2.92a7.8 7.8 0 01-3.46-6.37zm3.86 0a6 6 0 002.82 5.29A12.12 12.12 0 00232.7 17a12 12 0 006.92-1.9 6.34 6.34 0 002.8-5.59A6.8 6.8 0 00241 5.25 7.44 7.44 0 00237.64 3a13.51 13.51 0 00-4.87-.86 12.09 12.09 0 00-7 1.89A6.58 6.58 0 00223 9.82zM251 18.77V.33h9.79a33.13 33.13 0 015.52.34 11.51 11.51 0 014.29 1.61 8.48 8.48 0 012.83 3 8.32 8.32 0 011 4.22 8.3 8.3 0 01-1.73 5.31 9.27 9.27 0 01-4.42 3.09 22.53 22.53 0 01-7.07.92zm3.75-2.18h6a18.16 18.16 0 005.54-.64 5.62 5.62 0 002.9-2 7.49 7.49 0 001.35-4.49A6.41 6.41 0 00269.11 5a6.92 6.92 0 00-3.67-2.14 22 22 0 00-4.79-.37h-5.94zm21.78 2.18L287.47.33h4l11.61 18.44h-4.28l-3.3-5.59h-11.93l-3.08 5.59zm8.13-7.58h9.67l-2.95-5.1a39.48 39.48 0 01-2-3.83 17 17 0 01-1.55 3.53zM49.34 33.44h2a8.51 8.51 0 012.4.23 2.35 2.35 0 011.14.77 2 2 0 01.44 1.28 1.85 1.85 0 01-.48 1.3 3.07 3.07 0 01-1.45.79l2.41 3.49h-2.07L51.45 38h-.18v3.3h-1.93zm1.93 3.07h.61a2.85 2.85 0 001.27-.19.65.65 0 00.35-.62.68.68 0 00-.17-.45 1 1 0 00-.47-.27 4.23 4.23 0 00-1.06-.08h-.53zm11.8-3.07h5.55v1.46H65v1.42h3.63v1.44H65v2.07h3.63v1.47h-5.56zM81.4 34.5l-1.43 1a2.12 2.12 0 00-1.53-.81 1.11 1.11 0 00-.63.16.43.43 0 00-.24.35.55.55 0 00.17.38 12.75 12.75 0 001.42 1c.74.48 1.19.78 1.34.9a3.37 3.37 0 01.84.88 1.83 1.83 0 01.24.92 1.91 1.91 0 01-.86 1.6 3.74 3.74 0 01-2.25.63 4.12 4.12 0 01-1.89-.41 3.56 3.56 0 01-1.38-1.3l1.62-.8a2.08 2.08 0 001.69 1 1.51 1.51 0 00.84-.23.63.63 0 00.33-.52.79.79 0 00-.25-.53A7.06 7.06 0 0078.3 38a10.31 10.31 0 01-2.14-1.62 1.6 1.6 0 01.32-2.54 3.3 3.3 0 012-.58 3.88 3.88 0 011.44.27 5 5 0 011.48.97zm10.78-1.06h2L98 41.3h-2l-.8-1.62h-4.1l-.83 1.62h-2zm1 2.08l-1.36 2.7h2.72zm12.01-2.08h1.94v6.44h2.81v1.42h-4.75zm11.89 0h5.54v1.46H119v1.42h3.62v1.44H119v2.07h3.62v1.47h-5.54zM145 34.5l-1.43 1a2.16 2.16 0 00-1.54-.81 1.08 1.08 0 00-.62.16.43.43 0 00-.24.35.51.51 0 00.17.38 12.75 12.75 0 001.42 1c.73.48 1.18.78 1.34.9a3.31 3.31 0 01.83.88 1.74 1.74 0 01.25.92 1.9 1.9 0 01-.87 1.6 3.7 3.7 0 01-2.25.63 4.18 4.18 0 01-1.89-.41 3.56 3.56 0 01-1.38-1.3l1.63-.75a2.07 2.07 0 001.68 1 1.48 1.48 0 00.84-.23.62.62 0 00.34-.52.8.8 0 00-.26-.53 6.83 6.83 0 00-1.12-.82 10.46 10.46 0 01-2.15-1.62 1.75 1.75 0 01-.48-1.13 1.72 1.72 0 01.8-1.41 3.3 3.3 0 012-.58 3.93 3.93 0 011.45.27A5.18 5.18 0 01145 34.5zm6.69-1.06h5.62v1.47h-1.85v6.39h-2v-6.39h-1.81zm17.39-.2a5.84 5.84 0 013.71 1.21 3.56 3.56 0 010 5.86 6.45 6.45 0 01-7.51 0 3.66 3.66 0 01-1.52-2.91 3.4 3.4 0 01.71-2.08 4.78 4.78 0 011.94-1.5 6.35 6.35 0 012.67-.58zm0 1.46a3.74 3.74 0 00-2.37.76 2.36 2.36 0 00-1 1.93 2.34 2.34 0 001.21 2.07 4 4 0 002.16.59 3.68 3.68 0 002.34-.77 2.34 2.34 0 000-3.8 3.67 3.67 0 00-2.36-.78zM182 33.44h2a8.38 8.38 0 012.39.23 2.33 2.33 0 011.15.77 2 2 0 01.43 1.28 1.85 1.85 0 01-.48 1.3 3.09 3.09 0 01-1.44.79l2.4 3.49h-2.11l-2.28-3.3h-.18v3.3H182zm1.93 3.07h.61a2.91 2.91 0 001.27-.19.64.64 0 00.34-.62.63.63 0 00-.17-.45 1 1 0 00-.46-.27 4.29 4.29 0 00-1.06-.08h-.53zm11.75-3.07h5.54v1.46h-3.62v1.42h3.62v1.44h-3.62v2.07h3.62v1.47h-5.54zm22.6 0h1.85l4.36 5.17v-5.17h1.93v7.86h-1.85l-4.35-5.16v5.16h-1.94zm14 4.34a1.63 1.63 0 01-.72 1.33 2.93 2.93 0 01-3.42 0 1.59 1.59 0 010-2.65 2.78 2.78 0 011.71-.55 2.74 2.74 0 011.71.55 1.63 1.63 0 01.74 1.32zm-4.85 2.59h4.85v.93h-4.85zm3.57-2.58a.77.77 0 00-.34-.64 1.31 1.31 0 00-.83-.27 1.29 1.29 0 00-.83.27.76.76 0 000 1.28 1.27 1.27 0 00.83.27 1.31 1.31 0 00.83-.27.78.78 0 00.34-.64zm9.8-4.35h2.9v7.86h-1.92v-6.46h-2.1z" data-name="Слой 1"/></g></svg>