<svg width="67" height="9" fill="none" xmlns="http://www.w3.org/2000/svg"><path d="M6.389 8.732V2.5h3.652V.232H.078V2.5H3.73v6.232h2.659zm7.375-8.5h-2.66v8.5h2.66v-8.5zm1.946 0v8.5h2.446V4.036l4.556 4.696h2.269v-8.5h-2.447v4.66L18.085.233H15.71zm14.497 5.286l3.066 3.214h3.422l-4.272-4.428L36.535.232H33.31L30.207 3.43h-.71V.232h-2.57v8.5h2.57V5.518h.71zM41.984 0c-3.457 0-5.531 1.964-5.531 4.5S38.527 9 41.983 9c3.44 0 5.514-1.964 5.514-4.5S45.423 0 41.984 0zm0 6.929c-1.72 0-2.819-1.036-2.819-2.429 0-1.393 1.1-2.41 2.819-2.41 1.702 0 2.818 1.017 2.818 2.41 0 1.393-1.116 2.429-2.818 2.429zM57.244.232h-8.526v8.5h2.57V5.768h5.585V3.893h-5.584v-1.5h5.956V.233zm9.678 0h-8.527v8.5h2.57V5.768h5.585V3.893h-5.584v-1.5h5.956V.233z" fill="#000"/></svg>