<svg width="26" height="16" fill="none" xmlns="http://www.w3.org/2000/svg"><g clip-path="url(#clip0)"><path d="M16.444 1.711h-7V14.29h7V1.71z" fill="#FF5F00"/><path d="M9.889 8c0-2.555 1.2-4.822 3.044-6.289A7.95 7.95 0 008 .001 7.993 7.993 0 000 8c0 4.421 3.578 8 8 8a7.95 7.95 0 004.933-1.712A7.988 7.988 0 019.89 8z" fill="#EB001B"/><path d="M25.889 8c0 4.422-3.578 8-8 8a7.95 7.95 0 01-4.933-1.711A7.955 7.955 0 0016 8c0-2.556-1.2-4.822-3.044-6.289A7.95 7.95 0 0117.889 0c4.422 0 8 3.6 8 8z" fill="#F79E1B"/></g><defs><clipPath id="clip0"><path fill="#fff" d="M0 0h25.889v16H0z"/></clipPath></defs></svg>