<svg width="54" height="16" fill="none" xmlns="http://www.w3.org/2000/svg"><path fill-rule="evenodd" clip-rule="evenodd" d="M8.8 1.735c.42-.002 1.666-.114 2.193 1.667.356 1.2.922 3.166 1.7 5.897h.316c.834-2.88 1.406-4.845 1.718-5.897.533-1.8 1.866-1.667 2.4-1.667h4.115v12.8h-4.194V6.993h-.281l-2.338 7.544h-3.156l-2.338-7.55h-.28v7.55H4.46v-12.8H8.8zm18.464 0v7.55h.335l2.843-6.208a2.25 2.25 0 011.729-1.341h4.058v12.8h-4.281v-7.55h-.335l-2.788 6.208c-.552 1.23-1.784 1.341-1.784 1.341h-4.058v-12.8h4.281zm23.764 6.083c-.597 1.693-2.472 2.905-4.549 2.905h-4.49v3.813h-4.071V7.818h13.11z" fill="#0F754E"/><path fill-rule="evenodd" clip-rule="evenodd" d="M46.675 1.735h-8.97c.213 2.85 2.667 5.29 5.207 5.29h8.4c.484-2.369-1.185-5.29-4.637-5.29z" fill="url(#paint0_linear)"/><defs><linearGradient id="paint0_linear" x1="51.394" y1="5.063" x2="37.704" y2="5.063" gradientUnits="userSpaceOnUse"><stop stop-color="#1F5CD7"/><stop offset="1" stop-color="#02AEFF"/></linearGradient></defs></svg>