<?xml version="1.0" encoding="utf-8"?><svg viewBox="0 0 26 24" xmlns="http://www.w3.org/2000/svg" xmlns:xlink="http://www.w3.org/1999/xlink"><style>:root>svg{display:none}:root>svg:target{display:block}</style><svg fill="none" viewBox="0 0 18 18" id="icon-add" xmlns="http://www.w3.org/2000/svg"><path d="M17.902 8.003H9.997V.098H8.003v7.905H.098v1.994h7.905v7.906h1.994V9.997h7.905V8.003z" fill="#2E3A59"/></svg><svg fill="none" viewBox="0 0 12 14" id="icon-add-document" xmlns="http://www.w3.org/2000/svg"><path d="M10 13.666H2a1.333 1.333 0 01-1.333-1.333V1.666C.667.93 1.264.333 2 .333h4.667a.07.07 0 01.018 0h.004a.1.1 0 00.02.004.677.677 0 01.172.034h.028A.282.282 0 016.943.4a.658.658 0 01.196.133l4 4a.658.658 0 01.148.24v.019a.65.65 0 01.033.171c0 .007.002.013.005.02v.003a.07.07 0 01.008.014v7.333c0 .736-.597 1.333-1.333 1.333zm-8-12v10.667h8V5.666H6.667A.667.667 0 016 5V1.666H2zm5.333.943v1.724h1.724L7.333 2.61zM6.667 11H5.333V9.667H4V8.333h1.333V7h1.334v1.333H8v1.333H6.667V11z" fill="#fff"/></svg><svg fill="none" viewBox="0 0 5 4" id="icon-caret" xmlns="http://www.w3.org/2000/svg"><path d="M2.5 3.25L5 .75H0l2.5 2.5z" fill="#343434"/></svg><svg fill="none" viewBox="0 0 8 4" id="icon-caret-grey" xmlns="http://www.w3.org/2000/svg"><path d="M4 3.875L7.75.125H.25L4 3.875z" fill="#B4B4B4"/></svg><svg fill="none" viewBox="0 0 18 19" id="icon-checkbox-circle" xmlns="http://www.w3.org/2000/svg"><g clip-path="url(#eclip0)" fill="#B4B4B4"><path d="M2.647 15.853A8.953 8.953 0 009 18.485a8.954 8.954 0 006.353-2.632A8.953 8.953 0 0017.985 9.5a8.952 8.952 0 00-2.632-6.353A8.952 8.952 0 009 .515a8.953 8.953 0 00-6.353 2.632A8.953 8.953 0 00.015 9.5a8.955 8.955 0 002.632 6.353zM9 1.827a7.673 7.673 0 110 15.346A7.673 7.673 0 019 1.827z"/><path d="M9 18.5a8.968 8.968 0 01-6.364-2.636A8.968 8.968 0 010 9.502a8.969 8.969 0 012.636-6.364A8.968 8.968 0 019 .501a8.969 8.969 0 016.364 2.636A8.968 8.968 0 0118 9.501a8.969 8.969 0 01-2.636 6.364A8.97 8.97 0 019 18.501zM9 .533a8.938 8.938 0 00-6.342 2.627A8.938 8.938 0 00.03 9.5a8.938 8.938 0 002.627 6.342A8.939 8.939 0 009 18.47a8.937 8.937 0 006.342-2.627 8.938 8.938 0 002.627-6.342 8.938 8.938 0 00-2.627-6.342A8.94 8.94 0 009 .532zm0 16.657c-2.054 0-3.984-.8-5.437-2.252a7.638 7.638 0 01-2.251-5.436c0-2.054.8-3.984 2.251-5.437A7.638 7.638 0 019 1.813c2.054 0 3.984.8 5.436 2.251a7.638 7.638 0 012.252 5.437c0 2.054-.8 3.984-2.252 5.437A7.638 7.638 0 019 17.189zM9 1.843a7.608 7.608 0 00-5.415 2.243 7.608 7.608 0 00-2.243 5.415c0 2.046.797 3.969 2.243 5.415A7.608 7.608 0 009 17.159a7.608 7.608 0 005.415-2.243A7.608 7.608 0 0016.658 9.5a7.608 7.608 0 00-2.243-5.415A7.608 7.608 0 009 1.843z"/><path d="M7.011 12.77a.655.655 0 00.928 0l5.614-5.614a.656.656 0 10-.927-.927l-5.151 5.15-2.1-2.1a.656.656 0 10-.928.928L7.01 12.77z"/><path d="M7.475 12.978A.667.667 0 017 12.782l-2.564-2.564a.672.672 0 01.95-.95l2.089 2.09 5.14-5.14a.667.667 0 011.146.475c0 .179-.07.347-.197.474L7.95 12.782a.667.667 0 01-.474.196zM4.91 9.103a.641.641 0 00-.453 1.093l2.564 2.564a.636.636 0 00.453.188.636.636 0 00.453-.188l5.614-5.614a.636.636 0 00-.453-1.093.636.636 0 00-.452.187l-5.162 5.162L5.363 9.29a.636.636 0 00-.452-.187z"/></g><defs><clipPath id="eclip0"><path fill="#fff" transform="translate(0 .5)" d="M0 0h18v18H0z"/></clipPath></defs></svg><svg fill="none" viewBox="0 0 18 19" id="icon-checkbox-circle-active" xmlns="http://www.w3.org/2000/svg"><g clip-path="url(#fclip0)" fill="#A2D69A"><path d="M2.647 15.853A8.953 8.953 0 009 18.485a8.954 8.954 0 006.353-2.632A8.953 8.953 0 0017.985 9.5a8.952 8.952 0 00-2.632-6.353A8.952 8.952 0 009 .515a8.953 8.953 0 00-6.353 2.632A8.953 8.953 0 00.015 9.5a8.955 8.955 0 002.632 6.353zM9 1.827a7.673 7.673 0 110 15.346A7.673 7.673 0 019 1.827z"/><path d="M9 18.5a8.968 8.968 0 01-6.364-2.636A8.968 8.968 0 010 9.502a8.969 8.969 0 012.636-6.364A8.968 8.968 0 019 .501a8.969 8.969 0 016.364 2.636A8.968 8.968 0 0118 9.501a8.969 8.969 0 01-2.636 6.364A8.97 8.97 0 019 18.501zM9 .533a8.938 8.938 0 00-6.342 2.627A8.938 8.938 0 00.03 9.5a8.938 8.938 0 002.627 6.342A8.939 8.939 0 009 18.47a8.937 8.937 0 006.342-2.627 8.938 8.938 0 002.627-6.342 8.938 8.938 0 00-2.627-6.342A8.94 8.94 0 009 .532zm0 16.657c-2.054 0-3.984-.8-5.437-2.252a7.638 7.638 0 01-2.251-5.436c0-2.054.8-3.984 2.251-5.437A7.638 7.638 0 019 1.813c2.054 0 3.984.8 5.436 2.251a7.638 7.638 0 012.252 5.437c0 2.054-.8 3.984-2.252 5.437A7.638 7.638 0 019 17.189zM9 1.843a7.608 7.608 0 00-5.415 2.243 7.608 7.608 0 00-2.243 5.415c0 2.046.797 3.969 2.243 5.415A7.608 7.608 0 009 17.159a7.608 7.608 0 005.415-2.243A7.608 7.608 0 0016.658 9.5a7.608 7.608 0 00-2.243-5.415A7.608 7.608 0 009 1.843z"/><path d="M7.011 12.77a.655.655 0 00.928 0l5.614-5.614a.656.656 0 10-.927-.927l-5.151 5.15-2.1-2.1a.656.656 0 10-.928.928L7.01 12.77z"/><path d="M7.475 12.978A.667.667 0 017 12.782l-2.564-2.564a.672.672 0 01.95-.95l2.089 2.09 5.14-5.14a.667.667 0 011.146.475c0 .179-.07.347-.197.474L7.95 12.782a.667.667 0 01-.474.196zM4.91 9.103a.641.641 0 00-.453 1.093l2.564 2.564a.636.636 0 00.453.188.636.636 0 00.453-.188l5.614-5.614a.636.636 0 00-.453-1.093.636.636 0 00-.452.187l-5.162 5.162L5.363 9.29a.636.636 0 00-.452-.187z"/></g><defs><clipPath id="fclip0"><path fill="#fff" transform="translate(0 .5)" d="M0 0h18v18H0z"/></clipPath></defs></svg><svg fill="none" viewBox="0 0 10 10" id="icon-checkbox-mark" xmlns="http://www.w3.org/2000/svg"><g clip-path="url(#gclip0)"><path d="M9.853 1.475a.5.5 0 00-.707 0l-5.99 5.99L.853 5.162a.5.5 0 00-.707.707l2.656 2.657a.5.5 0 00.707 0l6.344-6.344a.5.5 0 000-.707z" fill="#000"/></g><defs><clipPath id="gclip0"><path fill="#fff" d="M0 0h10v10H0z"/></clipPath></defs></svg><svg fill="none" viewBox="0 0 18 18" id="icon-close" xmlns="http://www.w3.org/2000/svg"><path d="M12.789 6.489L11.511 5.21 9 7.73 6.489 5.21 5.211 6.489l2.52 2.51-2.52 2.512 1.278 1.278L9 10.269l2.511 2.52 1.278-1.278L10.269 9l2.52-2.511z" fill="#000"/><path d="M9 0a9 9 0 100 18A9 9 0 009 0zm0 16.371A7.371 7.371 0 019 1.629 7.38 7.38 0 0116.371 9c0 4.07-3.3 7.371-7.371 7.371z" fill="#000"/></svg><svg fill="none" viewBox="0 0 12 12" id="icon-close-2" xmlns="http://www.w3.org/2000/svg"><path d="M12 1.989L10.011 0 6 4.011 1.989 0 0 1.989 4.011 6 0 10.011 1.989 12 6 7.989 10.011 12 12 10.011 7.989 6 12 1.989z" fill="#000"/></svg><svg fill="none" viewBox="0 0 25 24" id="icon-clothing-size" xmlns="http://www.w3.org/2000/svg"><g clip-path="url(#jclip0)"><path d="M23.15 19.182l1.31-1.608-1.31-1.608 1.31-1.608-1.31-1.609 1.31-1.608-1.31-1.608 1.35-1.657-3.163-3.163-1.656 1.35-1.608-1.311-1.608 1.31-1.608-1.31-1.609 1.31-1.608-1.31-.376.307c-.133-.792-.2-1.595-.2-2.404V1.409h.96V.001H3.701v1.408h.96v1.246c0 1.75-.311 3.47-.926 5.11L.679 15.913a2.821 2.821 0 002.638 3.807h2.86l-.949 1.253 3.158 3.019 1.645-1.34 1.608 1.31 1.608-1.31 1.608 1.31 1.608-1.31 1.609 1.31 1.608-1.31L21.337 24l3.163-3.163-1.35-1.656zm-19.832-.87a1.41 1.41 0 01-1.32-1.905L5.054 8.26A15.91 15.91 0 006.07 2.655V1.409h3.585v1.246c0 1.92.342 3.806 1.017 5.605l.072.192H7.863V9.86h3.409l.528 1.409H7.863v1.408h4.465l.528 1.409H7.863v1.408h5.522l.342.913a1.411 1.411 0 01-1.32 1.904h-9.09zm19.326-3.954l-1.31 1.608 1.31 1.608-1.31 1.608 1.27 1.56-1.364 1.364-1.56-1.272-1.608 1.31-1.609-1.31-1.608 1.31-1.608-1.31-1.608 1.31-1.608-1.31-1.571 1.28-1.35-1.291.835-1.103h4.462a2.821 2.821 0 002.639-3.807L11.99 7.765a14.615 14.615 0 01-.383-1.17l.032-.026 1.608 1.31 1.609-1.31 1.608 1.31 1.608-1.31 1.608 1.31 1.56-1.27 1.364 1.363-1.271 1.56 1.31 1.61-1.31 1.607 1.31 1.609z" fill="#000"/></g><defs><clipPath id="jclip0"><path fill="#fff" transform="translate(.5)" d="M0 0h24v24H0z"/></clipPath></defs></svg><svg fill="none" viewBox="0 0 14 16" id="icon-delete" xmlns="http://www.w3.org/2000/svg"><path d="M10.75 15.5h-7.5a1.5 1.5 0 01-1.5-1.5V4.25H.25v-1.5h3V2A1.5 1.5 0 014.75.5h4.5a1.5 1.5 0 011.5 1.5v.75h3v1.5h-1.5V14a1.5 1.5 0 01-1.5 1.5zM3.25 4.25V14h7.5V4.25h-7.5zM4.75 2v.75h4.5V2h-4.5zm4.5 10.5h-1.5V5.75h1.5v6.75zm-3 0h-1.5V5.75h1.5v6.75z" fill="#797979"/></svg><svg fill="none" viewBox="0 0 15 15" id="icon-edit" xmlns="http://www.w3.org/2000/svg"><path d="M1.315 14.434a.75.75 0 01-.553-.244.741.741 0 01-.197-.573l.184-2.02L9.237 3.11l2.653 2.652-8.486 8.485-2.02.184a.73.73 0 01-.069.002zm11.104-9.201L9.767 2.58 11.358.99a.75.75 0 011.061 0l1.591 1.59a.75.75 0 010 1.062l-1.59 1.59z" fill="#797979"/></svg><svg fill="none" viewBox="0 0 10 10" id="icon-home" xmlns="http://www.w3.org/2000/svg"><path d="M8.5 10h-7a.5.5 0 01-.5-.5v-4H0L4.646.854a.5.5 0 01.708 0L10 5.5H9v4a.5.5 0 01-.5.5zM4 6.5h2V9h2V4.914l-3-3-3 3V9h2V6.5z" fill="#2E3A59"/></svg><svg fill="none" viewBox="0 0 14 14" id="icon-input" xmlns="http://www.w3.org/2000/svg"><path d="M.437 4.375h13.126a.438.438 0 000-.875H.437a.438.438 0 000 .875zM13.563 6.563H.437a.438.438 0 000 .874h13.126a.438.438 0 000-.875zM13.563 9.625h-8.75a.438.438 0 000 .875h8.75a.438.438 0 000-.875z" fill="#B4B4B4"/></svg><svg fill="none" viewBox="0 0 12 12" id="icon-right-menu" xmlns="http://www.w3.org/2000/svg"><path d="M11.853 0H.147v1.84h11.706V0zM11.846 3.328H3.432v1.84h8.414v-1.84zM11.853 6.832H.147v1.84h11.706v-1.84zM11.846 10.16H3.432V12h8.414v-1.84z" fill="#000"/></svg><svg fill="none" viewBox="0 0 26 24" id="icon-shoe-size" xmlns="http://www.w3.org/2000/svg"><path d="M2.834 20.675c.596-.36 1.166-.708 1.714-1.044.926.39 4.377 1.754 7.408 1.754.36 0 .713-.02 1.055-.062 2.62-.322 6.745-2.475 8.135-4.766l.684-1.127-1.31-.15c-.078-.009-.192-.02-.33-.032 1.215-1.124 1.962-2.384 2.941-4.036l.008-.011c1.384-2.335 1.904-5.6 2.362-8.481.097-.608.188-1.182.284-1.719l.174-.982-.997-.01c-3.337-.035-7.694 1.01-10.595 2.545-2.131 1.127-3.633 2.17-4.955 4.033-.073-.3-.13-.523-.148-.588L8.85 4.412 7.8 5.672c-.111.133-2.729 3.284-3.672 5.548-1.293 3.105-.896 5.718-.536 7.017-.521.32-1.063.65-1.632.993l.875 1.445zM4.98 16.51c-.168-1.552.07-3.113.706-4.64.487-1.168 1.535-2.677 2.342-3.753.072.353.125.659.134.833l.17 3.109 1.424-2.768c1.31-2.545 2.521-3.72 5.4-5.244 2.358-1.247 5.9-2.17 8.794-2.326l-.117.733c-.435 2.732-.928 5.828-2.148 7.885l-.006.012c-1.362 2.295-2.112 3.56-4.249 4.85l-2.296 1.384 2.675.181c.202.014.528.036.881.062-1.574 1.382-4.204 2.612-5.886 2.819-2.113.26-4.858-.556-6.464-1.135 4.495-2.855 7.5-5.214 11.51-9.598l-1.246-1.14c-4.007 4.38-6.876 6.613-11.501 9.524a8.314 8.314 0 01-.123-.788z" fill="#000"/></svg></svg>