<svg width="51" height="16" fill="none" xmlns="http://www.w3.org/2000/svg"><g clip-path="url(#clip0)"><path d="M22.312 15.77h-4.005L20.812.28h4.005l-2.505 15.49zM36.83.66A9.87 9.87 0 0033.238 0c-3.955 0-6.74 2.109-6.757 5.124-.033 2.225 1.994 3.46 3.51 4.202 1.55.758 2.076 1.253 2.076 1.928-.016 1.038-1.252 1.516-2.405 1.516-1.6 0-2.456-.246-3.758-.824l-.527-.247-.56 3.477c.939.428 2.67.807 4.466.824 4.202 0 6.938-2.076 6.97-5.29.016-1.763-1.054-3.114-3.361-4.218-1.401-.708-2.259-1.186-2.259-1.911.016-.66.726-1.335 2.307-1.335a6.805 6.805 0 012.983.593l.362.165.545-3.345zm5.323 9.622c.33-.89 1.598-4.333 1.598-4.333-.016.033.33-.907.527-1.483l.28 1.334s.759 3.708.923 4.482h-3.328zM47.096.281h-3.098c-.955 0-1.68.28-2.093 1.285l-5.949 14.203h4.202L41 13.446h5.142c.115.543.478 2.323.478 2.323h3.708L47.096.281zM14.962.28L11.04 10.843 10.612 8.7c-.726-2.471-3-5.157-5.537-6.492l3.592 13.545h4.235L19.197.28h-4.235z" fill="#00579F"/><path d="M7.398.28H.955L.889.595C5.915 1.879 9.244 4.977 10.612 8.7L9.21 1.583C8.98.593 8.27.313 7.398.28z" fill="#FAA61A"/></g><defs><clipPath id="clip0"><path fill="#fff" transform="translate(.889)" d="M0 0h49.438v16H0z"/></clipPath></defs></svg>